<svg xmlns="http://www.w3.org/2000/svg" viewBox="0 0 512 512"><defs><style>.cls-1{fill:#f7f7f7;}.cls-2{fill:#d6d6d6;}.cls-3{fill:#fff;}.cls-4{fill:#3f51b5;}</style></defs><g id="Artwork"><path id="Page" class="cls-1" d="M361.36,432H150.64A22.64,22.64,0,0,1,128,409.36V102.64A22.64,22.64,0,0,1,150.64,80H294l90,90V409.36A22.64,22.64,0,0,1,361.36,432Z"/><polygon class="cls-2" points="384 247 300.5 163.5 339 125 384 170 384 247"/><path id="Corner" class="cls-3" d="M316.16,170H384L294,80v67.84A22.16,22.16,0,0,0,316.16,170Z"/><g id="Lines"><rect class="cls-4" x="172" y="208" width="167" height="24"/><rect class="cls-4" x="172" y="256" width="167" height="24"/><rect class="cls-4" x="172" y="304" width="167" height="24"/><rect class="cls-4" x="172" y="352" width="104.26" height="24"/></g></g></svg>